<svg xmlns="http://www.w3.org/2000/svg" viewBox="0 0 500 300" role="img"
   font-family="'Pretendard','IBM Plex Sans KR',system-ui,-apple-system,'Malgun Gothic',sans-serif" aria-label="상단 공격을 더킹으로 흘리면 낮아진 그 높이가 바로 상대 몸통 높이라, 준비 동작 없이 바디를 칠 수 있다.">
   <defs><marker id="db-m" viewBox="0 0 10 10" refX="8.5" refY="5"
   markerWidth="4.4" markerHeight="4.4" orient="auto-start-reverse"><path d="M0,0 L10,5 L0,10 z" fill="#10B981"/></marker><marker id="db-g" viewBox="0 0 10 10" refX="8.5" refY="5"
   markerWidth="4.4" markerHeight="4.4" orient="auto-start-reverse"><path d="M0,0 L10,5 L0,10 z" fill="#7A5A08"/></marker></defs>
   <rect x="0" y="0" width="500" height="300" rx="16" fill="#FFFFFF"/>
<text x="250" y="31" fill="#15181B" font-size="15"
    font-weight="800" text-anchor="middle">레벨17 · 더킹 + 바디</text>
<rect x="136" y="46" width="228" height="21" rx="10.5" fill="#E7F7F0"/><text x="250" y="61" fill="#0A7A55" font-size="11.5"
    font-weight="700" text-anchor="middle">피한 높이가 곧 몸통 높이</text>
<g opacity="1">
    <polyline points="113,111 99,125 122,118" fill="none" stroke="#AEB7BE"
      stroke-width="6.4" stroke-linecap="round" stroke-linejoin="round"/><circle cx="122" cy="118" r="6.8" fill="#AEB7BE"/>
    <polyline points="110,139 98,161 90,181" fill="none" stroke="#AEB7BE"
      stroke-width="7.6" stroke-linecap="round" stroke-linejoin="round"/>
    <polyline points="112,104 110,139" fill="none" stroke="#AEB7BE"
      stroke-width="12" stroke-linecap="round" stroke-linejoin="round"/>
    <polyline points="110,139 126,159 134,181" fill="none" stroke="#AEB7BE"
      stroke-width="7.6" stroke-linecap="round" stroke-linejoin="round"/>
    <circle cx="112" cy="95" r="9.5" fill="#AEB7BE"/>
    <polyline points="113,111 126,127 133,109" fill="none" stroke="#AEB7BE"
      stroke-width="6.4" stroke-linecap="round" stroke-linejoin="round"/><circle cx="133" cy="109" r="6.8" fill="#AEB7BE"/>
  </g>
<text x="112" y="210" fill="#AEB7BE" font-size="10.5"
    font-weight="600" text-anchor="middle">상대</text>
<line x1="152" y1="96" x2="398" y2="96" stroke="#7A5A08" stroke-width="3" marker-end="url(#db-g)"/>
<text x="238" y="86" fill="#7A5A08" font-size="10"
    font-weight="700" text-anchor="middle">상단 공격</text>
<g transform="translate(744,0) scale(-1,1)"><circle cx="372" cy="95" r="9.5" fill="none" stroke="#AEB7BE" stroke-width="1.6" stroke-dasharray="3 3"/><g opacity="1">
    <polyline points="373,134 359,144 381,135" fill="none" stroke="#15181B"
      stroke-width="6.4" stroke-linecap="round" stroke-linejoin="round"/><circle cx="381" cy="135" r="6.8" fill="#15181B"/>
    <polyline points="370,154 353,170 347,181" fill="none" stroke="#15181B"
      stroke-width="7.6" stroke-linecap="round" stroke-linejoin="round"/>
    <polyline points="372,129 370,154" fill="none" stroke="#15181B"
      stroke-width="12" stroke-linecap="round" stroke-linejoin="round"/>
    <polyline points="370,154 391,168 395,181" fill="none" stroke="#15181B"
      stroke-width="7.6" stroke-linecap="round" stroke-linejoin="round"/>
    <circle cx="372" cy="120" r="9" fill="#15181B"/>
    <polyline points="373,134 390,140 407,142" fill="none" stroke="#15181B"
      stroke-width="6.4" stroke-linecap="round" stroke-linejoin="round"/><circle cx="407" cy="142" r="6.8" fill="#15181B"/>
  </g></g>
<text x="372" y="210" fill="#15181B" font-size="10.5"
    font-weight="600" text-anchor="middle">나</text>
<line x1="386" y1="72" x2="386" y2="112" stroke="#10B981" stroke-width="2.4" marker-end="url(#db-m)"/>
<text x="400" y="78" fill="#10B981" font-size="10"
    font-weight="700" text-anchor="start">수직으로</text>
<text x="400" y="92" fill="#10B981" font-size="10"
    font-weight="700" text-anchor="start">낮춘다</text>
<line x1="330" y1="142" x2="150" y2="146" stroke="#10B981" stroke-width="3.2" marker-end="url(#db-m)"/>
<text x="240" y="168" fill="#10B981" font-size="10.5"
    font-weight="700" text-anchor="middle">그 높이 그대로 몸통</text>
<text x="250" y="246" fill="#0A7A55" font-size="12"
    font-weight="800" text-anchor="middle">피한 자세가 곧 치는 자세 — 준비 동작이 없다</text>
<line x1="24" y1="254" x2="476" y2="254" stroke="#E3E7E4" stroke-width="2"/><text x="250" y="278" fill="#5B6570" font-size="11.5"
    font-weight="700" text-anchor="middle">회피 3종과 반격 3종이 여기서 짝을 다 이룹니다</text></svg>
